<svg id="eDpT3q6zXBr1" xmlns="http://www.w3.org/2000/svg" xmlns:xlink="http://www.w3.org/1999/xlink" viewBox="0 0 300 300" shape-rendering="geometricPrecision" text-rendering="geometricPrecision"><path d="M129.330159,309.008259c-13.172271-14.489466-28.003476-79.622705-4.035366-96.848783c39.8869-28.667044,68.405133-14.35414,53.468599-63.03876-2.858425-9.316843,10.36689-8.500262,0-13.633193-26.753158-13.246221-15.080259-67.889139,16.141463-87.76921c23.957961-15.254955,25.034806,18.847999,67.592381-49.44945" stroke="#000" stroke-width="0.6" stroke-linecap="round" stroke-linejoin="round"/><path d="M264.233883,-1.731137c9.789969-.815495,34.683678-6.938997,39.601615,0c1.682928,2.374539.102187,51.134239,0,59.537865-.650174,53.468597,2.603555,115.038766,0,173.520736-.385371,8.656335-.073878,66.669887-4.661312,68.672536-9.207828,4.019686-146.76768,15.8394-162.438187,4.972893" transform="matrix(1.044465 0 0 1-13.485807 0)" stroke="#3f5787" stroke-width="0.6"/></svg>
